<svg width="38" height="38" viewBox="0 0 38 38" fill="none" xmlns="http://www.w3.org/2000/svg">
<path d="M23.3855 8.76888C18.5427 8.76888 8.84205 4.84304 8.84205 0H8.77034C8.77034 3.87614 10.3101 7.59353 13.0509 10.3344C15.7917 13.0753 19.509 14.6152 23.3852 14.6154C25.7108 14.6154 27.9413 15.5392 29.5859 17.1838C31.2305 18.8283 32.1544 21.0587 32.1544 23.3844C32.1549 25.7101 31.2314 27.9409 29.5872 29.5857C27.943 31.2307 25.7127 32.1549 23.387 32.1555C21.0611 32.1558 18.8305 31.2323 17.1856 29.5881C15.5407 27.9439 14.6164 25.7136 14.6159 23.3879C14.6159 21.4685 14.2378 19.568 13.5032 17.7948C12.7687 16.0216 11.6921 14.4104 10.3348 13.0533C8.97762 11.6962 7.36641 10.6197 5.59314 9.88522C3.81989 9.1508 1.91933 8.77283 0 8.7729V8.84404C4.84213 8.84404 8.76798 18.5405 8.76979 23.3842H8.76888C8.76886 26.275 9.62598 29.1007 11.2319 31.5042C12.8378 33.9077 15.1204 35.781 17.7909 36.8872C20.4615 37.9936 23.4001 38.2832 26.2353 37.7192C29.0704 37.1554 31.6746 35.7635 33.7188 33.7197C35.7627 31.6757 37.1548 29.0716 37.719 26.2364C38.2832 23.4014 37.9938 20.4628 36.8878 17.7921C35.7817 15.1214 33.9086 12.8387 31.5053 11.2326C29.1018 9.62647 26.2761 8.7691 23.3855 8.76888Z" fill="#CA1040"/>
</svg>
